<svg width="234" height="66" viewBox="0 0 234 66" fill="none" xmlns="http://www.w3.org/2000/svg">
<g clip-path="url(#clip0_344_14805)">
<path opacity="0.4" fill-rule="evenodd" clip-rule="evenodd" d="M29.8559 3.39914C29.8559 1.92295 28.6366 0.727272 27.1347 0.727272H27.1312L21.3063 0.730778C13.4718 0.737791 7.09619 6.9967 7.09619 14.6827V21.3308C7.09619 22.8035 8.31552 24.0027 9.81734 24.0027C11.3192 24.0027 12.5421 22.8035 12.5421 21.3308V14.6827C12.5421 9.93856 16.4754 6.07802 21.3098 6.07101L27.1347 6.0675C28.6401 6.0675 29.8559 4.87182 29.8559 3.39914ZM58.4791 0.728321H52.783C51.2811 0.728321 50.0618 1.924 50.0618 3.40019C50.0618 4.87287 51.2811 6.06505 52.783 6.06505H58.4791C63.3314 6.06505 67.2791 9.9361 67.2791 14.6943V21.3319C67.2791 22.8046 68.4984 24.0037 70.0002 24.0037C71.5056 24.0037 72.7214 22.8046 72.7214 21.3319V14.6943C72.7214 6.99073 66.3351 0.728321 58.4791 0.728321ZM30.0342 14.1101H49.7867C51.9501 14.1101 54.0276 14.9622 55.5401 16.4804C57.0634 18.0127 57.9073 20.071 57.9037 22.2134V26.6665C57.8858 27.1889 57.4603 27.6132 56.9275 27.6272H22.8863C22.3571 27.6097 21.9316 27.1854 21.9208 26.6665V22.2134C21.8815 17.7778 25.5145 14.1557 30.0342 14.1101Z" fill="white"/>
<path d="M76.5207 33.0565H3.29992C1.7981 33.0565 0.575195 34.2522 0.575195 35.7284C0.575195 37.2011 1.7981 38.3933 3.29992 38.3933H7.0938V51.1355C7.0938 58.8215 13.473 65.0804 21.3074 65.0874L27.1323 65.0909V65.0909C28.6377 65.0909 29.8535 63.8952 29.8571 62.419C29.8571 60.9464 28.6377 59.7507 27.1359 59.7507L21.3146 59.7472C16.4766 59.7402 12.5397 55.8796 12.5397 51.1355V38.3933H21.9189V41.9382C21.8831 46.3738 25.5125 49.9994 30.0323 50.0415H49.7848C54.3081 49.9994 57.9375 46.3738 57.9017 41.9382V38.3933H67.281V51.1215C67.281 55.8831 63.3333 59.7507 58.481 59.7507H52.7848C51.2794 59.7507 50.0601 60.9464 50.0601 62.419C50.0601 63.8952 51.2794 65.0909 52.7848 65.0909H58.481C66.3334 65.0909 72.7233 58.8285 72.7233 51.1215V38.3933H76.5207C78.0225 38.3933 79.2419 37.2011 79.2419 35.7284C79.2419 34.2522 78.0225 33.0565 76.5207 33.0565" fill="white"/>
<path d="M110.28 42.4945C110.28 48.1156 114.528 51.6771 121.179 51.6771C126.156 51.6771 132.121 49.1883 132.121 42.6662C132.121 40.5636 131.691 36.0582 123.925 33.6552L120.535 32.5825C117.961 31.8102 117.789 30.7803 117.789 30.1796C117.789 28.7636 118.99 27.8196 120.921 27.8196C123.11 27.8196 124.011 28.9782 124.011 30.5658H131.177C131.177 24.7302 126.843 21.3403 121.007 21.3403C115.043 21.3403 110.666 25.0305 110.666 30.3942C110.666 33.1403 111.782 37.3025 118.39 39.1047L121.865 40.2632C124.826 41.2931 124.826 42.2371 124.826 42.7091C124.826 44.5971 123.067 45.3694 121.179 45.3694C118.647 45.3694 117.66 44.0822 117.531 42.4945H110.28ZM135.336 36.5302C135.336 44.8545 142.03 51.6771 150.397 51.6771C158.807 51.6771 165.501 44.8545 165.501 36.5302C165.501 28.1629 158.807 21.3403 150.397 21.3403C142.03 21.3403 135.336 28.1629 135.336 36.5302ZM142.588 36.5302C142.588 32.1105 146.02 28.5491 150.397 28.5491C154.731 28.5491 158.292 32.1105 158.292 36.5302C158.292 40.9498 154.731 44.4683 150.397 44.4683C146.02 44.4683 142.588 40.9498 142.588 36.5302ZM177.7 51.2909V39.8342H187.011V33.6552H177.7V27.9912H189.457V21.7265H170.448V51.2909H177.7ZM193.831 51.2909H200.996V21.7265H193.831V51.2909ZM225.81 51.2909H233.405L222.549 21.7265H214.74L203.841 51.2909H211.521L214.01 44.5112H223.321L225.81 51.2909ZM218.601 28.592L221.476 38.3323H215.941L218.601 28.592Z" fill="white"/>
</g>
<defs>
<clipPath id="clip0_344_14805">
<rect width="234" height="66" fill="white"/>
</clipPath>
</defs>
</svg>
