<svg width="79" height="57" viewBox="0 0 79 57" fill="none" xmlns="http://www.w3.org/2000/svg">
<path d="M13.8135 44.6745L64.362 44.6745C64.362 44.6745 74.0775 43.8866 74.3574 56.0275" stroke="white" stroke-width="5.40626"/>
<path d="M64.0938 34.4127L13.0046 34.4127C13.0046 34.4127 3.00299 33.6017 3.00299 46.3065" stroke="white" stroke-width="5.40626"/>
<path d="M63.8223 3.59731H13.0034C13.0034 3.59731 3.00181 2.78627 3.00181 15.4911V19.8057" stroke="white" stroke-width="5.40626"/>
<path d="M64.0938 13.8589H13.8155" stroke="white" stroke-width="5.40626"/>
<path fill-rule="evenodd" clip-rule="evenodd" d="M66.3609 26.8444L66.45 26.8372L66.4531 26.837C66.4695 26.8362 66.5069 26.8348 66.5627 26.8342C66.6749 26.8331 66.8581 26.8358 67.0938 26.8545C67.5713 26.8924 68.2273 26.9932 68.931 27.2382C70.2682 27.7039 71.8165 28.6875 72.7365 31.0064L73.2781 32.6039H78.2546L78.9112 32.3813L77.8359 29.2098L77.8166 29.153L77.7949 29.0971C76.1955 24.9891 73.2448 23.0157 70.7089 22.1326C69.4711 21.7016 68.3428 21.5303 67.5215 21.4651C67.1077 21.4323 66.7629 21.4257 66.5093 21.4282C66.3823 21.4295 66.2774 21.433 66.1973 21.4368L66.1705 21.4381L20.8389 21.4381V26.8444H66.2515H66.3609Z" fill="#2DD9AE"/>
</svg>
