<svg width="492" height="401" viewBox="0 0 492 401" fill="none" xmlns="http://www.w3.org/2000/svg">
<line x1="308" y1="104.5" x2="362" y2="104.5" stroke="white"/>
<path d="M216 70V34L306.506 34L363 34" stroke="white"/>
<line x1="309" y1="315.5" x2="363" y2="315.5" stroke="white"/>
<path d="M51 327.5L194 327.5" stroke="white"/>
<path d="M51 230H106" stroke="white"/>
<path d="M50 129H156" stroke="white"/>
<path d="M51 30.625H173V83.625" stroke="white"/>
<path d="M232.999 63V214L87.4922 173.5C95.5275 144.569 111.96 119.132 133.999 99.9794C152.946 83.5144 176.037 71.6938 201.499 66.2904C211.659 64.1343 222.197 63 232.999 63Z" fill="#9AB8D5"/>
<path d="M233 63V214L201.5 66.2904C211.66 64.1343 222.198 63 233 63Z" fill="#BBCFE4"/>
<path d="M133.999 99.9795C111.96 119.132 95.5275 144.569 87.4922 173.5L232.999 214L133.999 99.9795Z" fill="#82A1C0"/>
<path d="M87.4929 173.5C83.9132 186.389 82 199.971 82 214C82 233.027 85.5192 251.232 91.9422 268L233 214L87.4929 173.5Z" fill="#63809D"/>
<path d="M232.999 63C316.394 63 383.999 130.605 383.999 214C383.999 241.917 376.423 268.065 363.215 290.5C336.967 335.082 288.477 365 232.999 365C226.046 365 219.203 364.53 212.499 363.62C157.145 356.107 111.323 318.597 91.9414 268L232.999 214V63Z" fill="#2DD9AE"/>
<path d="M384 214C384 130.605 316.395 63 233 63V214L363.215 290.5C376.424 268.065 384 241.917 384 214Z" fill="#46617A"/>
<path d="M212.5 363.62C219.204 364.53 226.047 365 233 365C288.478 365 336.967 335.082 363.215 290.5L233 214L212.5 363.62Z" fill="#33485C"/>
<text fill="white" xml:space="preserve" style="white-space: pre" font-family="DM Sans" font-size="19" font-style="italic" font-weight="bold" letter-spacing="0em"><tspan x="378" y="109.354">34%</tspan></text>
<text fill="white" xml:space="preserve" style="white-space: pre" font-family="DM Sans" font-size="18" letter-spacing="0em"><tspan x="378" y="134.013">GoogleDrive</tspan></text>
<text fill="white" xml:space="preserve" style="white-space: pre" font-family="DM Sans" font-size="19" font-style="italic" font-weight="bold" letter-spacing="0em"><tspan x="378" y="39.354">4%</tspan></text>
<text fill="white" xml:space="preserve" style="white-space: pre" font-family="DM Sans" font-size="18" letter-spacing="0em"><tspan x="378" y="64.013">iCloud</tspan></text>
<text fill="white" xml:space="preserve" style="white-space: pre" font-family="DM Sans" font-size="19" font-style="italic" font-weight="bold" letter-spacing="0em"><tspan x="378" y="325.354">23%</tspan></text>
<text fill="white" xml:space="preserve" style="white-space: pre" font-family="DM Sans" font-size="18" letter-spacing="0em"><tspan x="378" y="350.013">Telegram</tspan></text>
<text fill="white" xml:space="preserve" style="white-space: pre" font-family="DM Sans" font-size="19" font-style="italic" font-weight="bold" letter-spacing="0em"><tspan x="6" y="335.354">20%</tspan></text>
<text fill="white" xml:space="preserve" style="white-space: pre" font-family="DM Sans" font-size="18" letter-spacing="0em"><tspan x="6" y="360.013">No sync</tspan></text>
<text fill="white" xml:space="preserve" style="white-space: pre" font-family="DM Sans" font-size="19" font-style="italic" font-weight="bold" letter-spacing="0em"><tspan x="6" y="235.354">9%</tspan></text>
<text fill="white" xml:space="preserve" style="white-space: pre" font-family="DM Sans" font-size="18" letter-spacing="0em"><tspan x="6" y="260.013">Email</tspan></text>
<text fill="white" xml:space="preserve" style="white-space: pre" font-family="DM Sans" font-size="19" font-style="italic" font-weight="bold" letter-spacing="0em"><tspan x="5" y="134.354">11%</tspan></text>
<text fill="white" xml:space="preserve" style="white-space: pre" font-family="DM Sans" font-size="18" letter-spacing="0em"><tspan x="5" y="159.013">Others</tspan></text>
<text fill="white" xml:space="preserve" style="white-space: pre" font-family="DM Sans" font-size="19" font-style="italic" font-weight="bold" letter-spacing="0em"><tspan x="6" y="36.354">6%</tspan></text>
<text fill="white" xml:space="preserve" style="white-space: pre" font-family="DM Sans" font-size="18" letter-spacing="0em"><tspan x="6" y="61.013">USB Drive</tspan></text>
</svg>
